<svg width="38" height="40" viewBox="0 0 38 40" fill="none" xmlns="http://www.w3.org/2000/svg">
<path d="M13.6638 15.3435C14.459 15.0835 15.2995 14.9865 16.1329 15.0598C16.9666 15.1332 17.778 15.3759 18.5158 15.771C18.6484 15.842 18.7763 15.9208 18.903 16.001C19.0278 15.9233 19.1542 15.8475 19.2845 15.7787C20.0212 15.3896 20.8295 15.1526 21.6597 15.0828C22.4897 15.0131 23.3262 15.1117 24.1173 15.3723C24.9084 15.6329 25.6384 16.0517 26.2644 16.6011C26.8904 17.1504 27.4004 17.8194 27.7616 18.5699C28.1229 19.3207 28.3287 20.1377 28.3674 20.97C28.406 21.8021 28.2759 22.6333 27.9859 23.4142C27.6991 24.1863 27.2589 24.8915 26.6957 25.4922L26.6977 25.4942L21.7575 30.8676L21.7556 30.8657C21.4017 31.2615 20.9718 31.5827 20.4884 31.8031C19.9883 32.0311 19.445 32.1481 18.8954 32.1482C18.3458 32.1482 17.8023 32.031 17.3023 31.8031C16.8022 31.575 16.3554 31.2423 15.9949 30.8273L11.1199 25.5191L11.118 25.521C10.5391 24.9173 10.0886 24.2025 9.79332 23.4199C9.49806 22.6372 9.36435 21.802 9.40033 20.9661C9.43645 20.13 9.64241 19.3092 10.0042 18.5545C10.366 17.7999 10.876 17.126 11.5052 16.5742C12.1343 16.0226 12.8686 15.6037 13.6638 15.3435ZM15.7898 18.9724C15.4844 18.9456 15.1763 18.9807 14.8849 19.076C14.5936 19.1713 14.3237 19.3244 14.0932 19.5265C13.863 19.7285 13.6754 19.9749 13.543 20.2511C13.4105 20.5276 13.3358 20.8285 13.3226 21.1348C13.3094 21.4411 13.3582 21.7471 13.4663 22.0339C13.5474 22.2489 13.6609 22.4498 13.8018 22.6301L13.9533 22.8046L13.9801 22.8333L18.8954 28.1799L23.8087 22.8372L23.826 22.818C24.0357 22.5963 24.1989 22.3335 24.3052 22.0473C24.4115 21.7613 24.4593 21.457 24.4452 21.1521C24.431 20.8472 24.3551 20.5472 24.2228 20.2722C24.0905 19.9975 23.9037 19.7525 23.6745 19.5514C23.4452 19.3502 23.1783 19.1963 22.8885 19.1009C22.5986 19.0054 22.2917 18.9699 21.9875 18.9954C21.6835 19.0211 21.387 19.1079 21.1172 19.2504C20.8476 19.3929 20.6099 19.5889 20.4175 19.8255C20.0433 20.2856 19.4807 20.5521 18.8877 20.5502C18.2943 20.5479 17.7327 20.2771 17.3617 19.814C17.1701 19.5747 16.9323 19.376 16.662 19.2312C16.3919 19.0866 16.095 18.9994 15.7898 18.9724Z" fill="white" style="fill:white;fill-opacity:1;"/>
<path d="M33.8509 16.8181C33.8297 16.6241 33.778 16.4342 33.6956 16.2564C33.5854 16.0189 33.4239 15.8081 33.224 15.6391L33.2144 15.6295L20.0559 4.35165L19.7971 4.16953C19.5244 4.01125 19.2133 3.92607 18.8942 3.92607C18.469 3.92607 18.0573 4.07715 17.7325 4.35165L4.57402 15.6295L4.56444 15.6391C4.36452 15.8081 4.20303 16.0189 4.09285 16.2564C3.98292 16.4936 3.92601 16.7521 3.92607 17.0136V33.9448C3.92607 34.422 4.11579 34.8802 4.45325 35.2177C4.7907 35.555 5.249 35.7449 5.72616 35.7449H32.0623C32.5394 35.7449 32.9977 35.555 33.3352 35.2177C33.6726 34.8802 33.8624 34.422 33.8624 33.9448V17.0136L33.8509 16.8181ZM37.7884 33.9448C37.7884 35.4633 37.1848 36.9198 36.111 37.9935C35.0373 39.0672 33.5807 39.6709 32.0623 39.6709H5.72616C4.20774 39.6709 2.75112 39.0672 1.6774 37.9935C0.603655 36.9198 3.57259e-08 35.4633 3.57259e-08 33.9448V17.0136C-9.28312e-05 16.1814 0.180866 15.3589 0.531016 14.6039C0.879618 13.8526 1.38745 13.1846 2.01863 12.6485L15.1886 1.36109L15.1982 1.35342C16.2316 0.480018 17.5411 0 18.8942 0C20.0779 7.24995e-08 21.2283 0.366343 22.1896 1.04286L22.5902 1.35342L22.5998 1.36109L35.7698 12.6485C36.4015 13.1848 36.9086 13.8522 37.2574 14.6039C37.6076 15.3589 37.7885 16.1814 37.7884 17.0136V33.9448Z" fill="white" style="fill:white;fill-opacity:1;"/>
</svg>
