<svg width="279" height="40" viewBox="0 0 279 40" fill="none" xmlns="http://www.w3.org/2000/svg">
<path d="M13.6638 15.3435C14.459 15.0835 15.2995 14.9865 16.1329 15.0598C16.9666 15.1332 17.778 15.3759 18.5158 15.771C18.6484 15.842 18.7763 15.9208 18.903 16.001C19.0278 15.9233 19.1542 15.8475 19.2845 15.7787C20.0212 15.3896 20.8295 15.1526 21.6597 15.0828C22.4897 15.0131 23.3262 15.1117 24.1173 15.3723C24.9084 15.6329 25.6384 16.0517 26.2644 16.6011C26.8904 17.1504 27.4004 17.8194 27.7616 18.5699C28.1229 19.3207 28.3287 20.1377 28.3674 20.97C28.406 21.8021 28.2759 22.6333 27.9859 23.4142C27.6991 24.1863 27.2589 24.8915 26.6957 25.4922L26.6977 25.4942L21.7575 30.8676L21.7556 30.8657C21.4017 31.2615 20.9718 31.5827 20.4884 31.8031C19.9883 32.0311 19.445 32.1481 18.8954 32.1482C18.3458 32.1482 17.8023 32.031 17.3023 31.8031C16.8022 31.575 16.3554 31.2423 15.9949 30.8273L11.1199 25.5191L11.118 25.521C10.5391 24.9173 10.0886 24.2025 9.79332 23.4199C9.49806 22.6372 9.36435 21.802 9.40033 20.9661C9.43645 20.13 9.64241 19.3092 10.0042 18.5545C10.366 17.7999 10.876 17.126 11.5052 16.5742C12.1343 16.0226 12.8686 15.6037 13.6638 15.3435ZM15.7898 18.9724C15.4844 18.9456 15.1763 18.9807 14.8849 19.076C14.5936 19.1713 14.3237 19.3244 14.0932 19.5265C13.863 19.7285 13.6754 19.9749 13.543 20.2511C13.4105 20.5276 13.3358 20.8285 13.3226 21.1348C13.3094 21.4411 13.3582 21.7471 13.4663 22.0339C13.5474 22.2489 13.6609 22.4498 13.8018 22.6301L13.9533 22.8046L13.9801 22.8333L18.8954 28.1799L23.8087 22.8372L23.826 22.818C24.0357 22.5963 24.1989 22.3335 24.3052 22.0473C24.4115 21.7613 24.4593 21.457 24.4452 21.1521C24.431 20.8472 24.3551 20.5472 24.2228 20.2722C24.0905 19.9975 23.9037 19.7525 23.6745 19.5514C23.4452 19.3502 23.1783 19.1963 22.8885 19.1009C22.5986 19.0054 22.2917 18.9699 21.9875 18.9954C21.6835 19.0211 21.387 19.1079 21.1172 19.2504C20.8476 19.3929 20.6099 19.5889 20.4175 19.8255C20.0433 20.2856 19.4807 20.5521 18.8877 20.5502C18.2943 20.5479 17.7327 20.2771 17.3617 19.814C17.1701 19.5747 16.9323 19.376 16.662 19.2312C16.3919 19.0866 16.095 18.9994 15.7898 18.9724Z" fill="currentColor" style="fill:currentColor;fill-opacity:1;"/>
<path d="M33.8509 16.8181C33.8297 16.6241 33.778 16.4342 33.6956 16.2564C33.5854 16.0189 33.4239 15.8081 33.224 15.6391L33.2144 15.6295L20.0559 4.35165L19.7971 4.16953C19.5244 4.01125 19.2133 3.92607 18.8942 3.92607C18.469 3.92607 18.0573 4.07715 17.7325 4.35165L4.57402 15.6295L4.56444 15.6391C4.36452 15.8081 4.20303 16.0189 4.09285 16.2564C3.98292 16.4936 3.92601 16.7521 3.92607 17.0136V33.9448C3.92607 34.422 4.11579 34.8802 4.45325 35.2177C4.7907 35.555 5.249 35.7449 5.72616 35.7449H32.0623C32.5394 35.7449 32.9977 35.555 33.3352 35.2177C33.6726 34.8802 33.8624 34.422 33.8624 33.9448V17.0136L33.8509 16.8181ZM37.7884 33.9448C37.7884 35.4633 37.1848 36.9198 36.111 37.9935C35.0373 39.0672 33.5807 39.6709 32.0623 39.6709H5.72616C4.20774 39.6709 2.75112 39.0672 1.6774 37.9935C0.603655 36.9198 3.57259e-08 35.4633 3.57259e-08 33.9448V17.0136C-9.28312e-05 16.1814 0.180866 15.3589 0.531016 14.6039C0.879618 13.8526 1.38745 13.1846 2.01863 12.6485L15.1886 1.36109L15.1982 1.35342C16.2316 0.480018 17.5411 0 18.8942 0C20.0779 7.24995e-08 21.2283 0.366343 22.1896 1.04286L22.5902 1.35342L22.5998 1.36109L35.7698 12.6485C36.4015 13.1848 36.9086 13.8522 37.2574 14.6039C37.6076 15.3589 37.7885 16.1814 37.7884 17.0136V33.9448Z" fill="currentColor" style="fill:currentColor;fill-opacity:1;"/>
<path d="M55.2478 38.0395V13.9455H60.9366L61.4147 17.8655C62.1477 16.527 63.1835 15.4434 64.5221 14.6147C65.8925 13.7861 67.5179 13.3718 69.3983 13.3718C71.4061 13.3718 73.0952 13.7861 74.4657 14.6147C75.8361 15.4434 76.8719 16.6544 77.573 18.248C78.306 19.8415 78.6726 21.8015 78.6726 24.1281V38.0395H72.2666V24.7495C72.2666 22.8373 71.8523 21.3713 71.0236 20.3514C70.2269 19.3316 68.9839 18.8216 67.2948 18.8216C66.2112 18.8216 65.2392 19.0766 64.3787 19.5865C63.55 20.0965 62.8967 20.8295 62.4186 21.7856C61.9406 22.7098 61.7015 23.8412 61.7015 25.1798V38.0395H55.2478Z" fill="currentColor" style="fill:currentColor;fill-opacity:1;"/>
<path d="M96.3218 38.6132C93.8997 38.6132 91.7484 38.1033 89.868 37.0834C88.0196 36.0317 86.5695 34.5816 85.5177 32.7331C84.4979 30.8527 83.9879 28.6855 83.9879 26.2315C83.9879 23.7137 84.4979 21.4988 85.5177 19.5865C86.5695 17.6424 88.0196 16.1286 89.868 15.045C91.7165 13.9295 93.8678 13.3718 96.3218 13.3718C98.7121 13.3718 100.8 13.8976 102.584 14.9494C104.369 16.0011 105.755 17.4193 106.743 19.2041C107.731 20.9888 108.225 23.0126 108.225 25.2754C108.225 25.5941 108.225 25.9606 108.225 26.3749C108.225 26.7574 108.194 27.1558 108.13 27.5701H88.5773V23.65H101.724C101.628 22.0884 101.071 20.8613 100.051 19.969C99.0627 19.0766 97.8197 18.6304 96.3218 18.6304C95.2382 18.6304 94.2343 18.8854 93.3101 19.3953C92.3858 19.8734 91.6528 20.6223 91.111 21.6422C90.6011 22.662 90.3461 23.9528 90.3461 25.5144V26.9008C90.3461 28.2075 90.5851 29.3548 91.0632 30.3428C91.5731 31.2989 92.2743 32.0479 93.1666 32.5897C94.059 33.0996 95.0948 33.3546 96.274 33.3546C97.4532 33.3546 98.4253 33.0996 99.1902 32.5897C99.9869 32.0797 100.577 31.4264 100.959 30.6296H107.556C107.11 32.1275 106.361 33.482 105.309 34.6931C104.258 35.9042 102.967 36.8603 101.437 37.5615C99.9072 38.2626 98.2022 38.6132 96.3218 38.6132Z" fill="currentColor" style="fill:currentColor;fill-opacity:1;"/>
<path d="M117.31 38.0395L110.235 13.9455H116.593L121.278 33.498L120.083 33.4502L125.437 13.9455H132.608L137.962 33.4502L136.719 33.498L141.452 13.9455H147.81L140.735 38.0395H134.042L128.353 17.9611H129.692L124.003 38.0395H117.31Z" fill="currentColor" style="fill:currentColor;fill-opacity:1;"/>
<path d="M151.793 38.0395V3.61943H158.247V17.5309C159.043 16.2561 160.095 15.2521 161.402 14.5191C162.74 13.7542 164.286 13.3718 166.039 13.3718C168.047 13.3718 169.736 13.802 171.106 14.6625C172.477 15.4912 173.513 16.7022 174.214 18.2958C174.915 19.8893 175.265 21.8653 175.265 24.2237V38.0395H168.859V24.7973C168.859 22.8851 168.461 21.4191 167.664 20.3992C166.868 19.3475 165.609 18.8216 163.888 18.8216C162.836 18.8216 161.88 19.0766 161.019 19.5865C160.159 20.0965 159.474 20.8454 158.964 21.8334C158.486 22.7895 158.247 23.9368 158.247 25.2754V38.0395H151.793Z" fill="currentColor" style="fill:currentColor;fill-opacity:1;"/>
<path d="M192.722 38.6132C190.428 38.6132 188.356 38.0873 186.508 37.0356C184.691 35.952 183.241 34.47 182.157 32.5897C181.106 30.6774 180.58 28.4943 180.58 26.0403C180.58 23.5225 181.106 21.3235 182.157 19.4431C183.241 17.5309 184.707 16.0489 186.555 14.9972C188.404 13.9136 190.475 13.3718 192.77 13.3718C195.097 13.3718 197.168 13.9136 198.985 14.9972C200.833 16.0489 202.283 17.5309 203.335 19.4431C204.419 21.3235 204.961 23.5066 204.961 25.9925C204.961 28.4784 204.419 30.6774 203.335 32.5897C202.283 34.47 200.833 35.952 198.985 37.0356C197.136 38.0873 195.049 38.6132 192.722 38.6132ZM192.722 33.0199C193.806 33.0199 194.762 32.765 195.591 32.255C196.451 31.7451 197.12 30.9643 197.599 29.9126C198.108 28.8608 198.363 27.5541 198.363 25.9925C198.363 24.4308 198.108 23.1401 197.599 22.1202C197.12 21.0685 196.451 20.2877 195.591 19.7777C194.762 19.236 193.822 18.965 192.77 18.965C191.75 18.965 190.81 19.236 189.95 19.7777C189.089 20.2877 188.404 21.0685 187.894 22.1202C187.416 23.1401 187.177 24.4308 187.177 25.9925C187.177 27.5541 187.416 28.8608 187.894 29.9126C188.404 30.9643 189.073 31.7451 189.902 32.255C190.762 32.765 191.702 33.0199 192.722 33.0199Z" fill="currentColor" style="fill:currentColor;fill-opacity:1;"/>
<path d="M210.523 38.0395V13.9455H216.212L216.738 17.1484C217.502 16.0011 218.506 15.0928 219.749 14.4235C221.024 13.7224 222.474 13.3718 224.1 13.3718C225.311 13.3718 226.394 13.5311 227.35 13.8498C228.307 14.1685 229.151 14.6307 229.884 15.2362C230.649 15.8417 231.271 16.6066 231.749 17.5309C232.641 16.2242 233.804 15.2043 235.238 14.4713C236.673 13.7383 238.234 13.3718 239.923 13.3718C242.027 13.3718 243.78 13.802 245.182 14.6625C246.584 15.4912 247.636 16.7022 248.337 18.2958C249.07 19.8893 249.437 21.8493 249.437 24.1759V38.0395H243.031V24.7495C243.031 22.8373 242.648 21.3713 241.883 20.3514C241.15 19.3316 240.003 18.8216 238.441 18.8216C237.422 18.8216 236.513 19.0766 235.716 19.5865C234.92 20.0965 234.298 20.8295 233.852 21.7856C233.438 22.7417 233.231 23.889 233.231 25.2276V38.0395H226.777V24.7495C226.777 22.8373 226.394 21.3713 225.629 20.3514C224.865 19.3316 223.685 18.8216 222.092 18.8216C221.104 18.8216 220.211 19.0766 219.415 19.5865C218.65 20.0965 218.044 20.8295 217.598 21.7856C217.184 22.7417 216.977 23.889 216.977 25.2276V38.0395H210.523Z" fill="currentColor" style="fill:currentColor;fill-opacity:1;"/>
<path d="M267.096 38.6132C264.674 38.6132 262.523 38.1033 260.643 37.0834C258.794 36.0317 257.344 34.5816 256.292 32.7331C255.272 30.8527 254.763 28.6855 254.763 26.2315C254.763 23.7137 255.272 21.4988 256.292 19.5865C257.344 17.6424 258.794 16.1286 260.643 15.045C262.491 13.9295 264.642 13.3718 267.096 13.3718C269.487 13.3718 271.574 13.8976 273.359 14.9494C275.144 16.0011 276.53 17.4193 277.518 19.2041C278.506 20.9888 279 23.0126 279 25.2754C279 25.5941 279 25.9606 279 26.3749C279 26.7574 278.968 27.1558 278.904 27.5701H259.352V23.65H272.498C272.403 22.0884 271.845 20.8613 270.825 19.969C269.837 19.0766 268.594 18.6304 267.096 18.6304C266.013 18.6304 265.009 18.8854 264.085 19.3953C263.16 19.8734 262.427 20.6223 261.886 21.6422C261.376 22.662 261.121 23.9528 261.121 25.5144V26.9008C261.121 28.2075 261.36 29.3548 261.838 30.3428C262.348 31.2989 263.049 32.0479 263.941 32.5897C264.834 33.0996 265.869 33.3546 267.049 33.3546C268.228 33.3546 269.2 33.0996 269.965 32.5897C270.761 32.0797 271.351 31.4264 271.734 30.6296H278.331C277.885 32.1275 277.136 33.482 276.084 34.6931C275.032 35.9042 273.741 36.8603 272.212 37.5615C270.682 38.2626 268.977 38.6132 267.096 38.6132Z" fill="currentColor" style="fill:currentColor;fill-opacity:1;"/>
</svg>
