<svg width="108" height="23" viewBox="0 0 108 23" fill="none" xmlns="http://www.w3.org/2000/svg">
<g clip-path="url(#clip0_21_34)">
<path d="M6.53061 9.45441C6.83003 9.3565 7.1465 9.32 7.4603 9.34758C7.77421 9.37521 8.07971 9.46661 8.35751 9.61537C8.40745 9.64212 8.45559 9.67178 8.50331 9.70199C8.55029 9.67272 8.59787 9.64419 8.64695 9.61826C8.92433 9.47176 9.22868 9.38253 9.54127 9.35625C9.85379 9.33001 10.1687 9.36712 10.4666 9.46524C10.7645 9.56339 11.0393 9.72106 11.2751 9.92792C11.5107 10.1348 11.7028 10.3866 11.8388 10.6692C11.9748 10.9519 12.0523 11.2595 12.0669 11.5729C12.0814 11.8862 12.0324 12.1992 11.9232 12.4932C11.8152 12.7839 11.6495 13.0495 11.4375 13.2757L11.4382 13.2764L9.57808 15.2996L9.57736 15.2989C9.44412 15.4479 9.28226 15.5688 9.10025 15.6518C8.91196 15.7377 8.70736 15.7818 8.50043 15.7818C8.29351 15.7818 8.08888 15.7377 7.9006 15.6518C7.71229 15.566 7.54406 15.4407 7.40833 15.2844V15.2837L5.57278 13.2858L5.57205 13.2865C5.3541 13.0592 5.18446 12.79 5.07329 12.4954C4.96211 12.2006 4.91177 11.8862 4.92531 11.5715C4.93891 11.2566 5.01646 10.9476 5.15268 10.6634C5.2889 10.3793 5.48096 10.1256 5.71786 9.91781C5.95472 9.7101 6.2312 9.55237 6.53061 9.45441ZM7.3311 10.8208C7.2161 10.8107 7.10013 10.8239 6.9904 10.8598C6.88071 10.8957 6.77908 10.9533 6.6923 11.0294C6.60561 11.1055 6.535 11.1982 6.48514 11.3022C6.43524 11.4063 6.40711 11.5197 6.40213 11.635C6.39716 11.7503 6.41553 11.8655 6.45627 11.9735C6.4868 12.0545 6.52952 12.1301 6.58258 12.198L6.63961 12.2637L6.64971 12.2745L8.50043 14.2876L10.3504 12.276L10.3569 12.2687C10.4359 12.1853 10.4973 12.0863 10.5374 11.9786C10.5774 11.8709 10.5954 11.7563 10.5901 11.6415C10.5847 11.5267 10.5562 11.4137 10.5063 11.3102C10.4565 11.2068 10.3862 11.1145 10.2999 11.0388C10.2135 10.963 10.113 10.9051 10.0039 10.8692C9.89479 10.8332 9.77922 10.8198 9.6647 10.8295C9.55024 10.8391 9.43857 10.8718 9.337 10.9255C9.23549 10.9791 9.14599 11.0529 9.07354 11.142C8.93264 11.3152 8.72083 11.4156 8.49754 11.4148C8.27412 11.414 8.06265 11.312 7.92298 11.1377C7.85081 11.0476 7.76129 10.9727 7.65952 10.9182C7.55781 10.8638 7.44602 10.8309 7.3311 10.8208Z" fill="currentColor" style="fill:currentColor;fill-opacity:1;"/>
<path d="M14.1315 10.0096C14.1236 9.93655 14.1041 9.86508 14.0731 9.79811C14.0316 9.70871 13.9708 9.62931 13.8955 9.56569L13.8919 9.56208L8.93741 5.31569L8.83997 5.24712C8.73726 5.18752 8.62013 5.15545 8.49999 5.15545C8.33988 5.15545 8.18487 5.21233 8.06258 5.31569L3.1081 9.56208L3.10449 9.56569C3.02921 9.62931 2.96841 9.70871 2.92692 9.79811C2.88553 9.88743 2.8641 9.98478 2.86413 10.0832V16.4582C2.86413 16.6379 2.93556 16.8104 3.06262 16.9375C3.18968 17.0645 3.36224 17.136 3.5419 17.136H13.4581C13.6377 17.136 13.8103 17.0645 13.9374 16.9375C14.0644 16.8104 14.1359 16.6379 14.1359 16.4582V10.0832L14.1315 10.0096ZM15.6141 16.4582C15.6141 17.03 15.3868 17.5784 14.9825 17.9827C14.5783 18.3869 14.0298 18.6143 13.4581 18.6143H3.5419C2.97018 18.6143 2.42173 18.3869 2.01745 17.9827C1.61316 17.5784 1.38586 17.03 1.38586 16.4582V10.0832C1.38583 9.76986 1.45396 9.46019 1.5858 9.17591C1.71706 8.89303 1.90827 8.64152 2.14593 8.43967L7.10474 4.18967L7.10835 4.18678C7.49746 3.85792 7.99053 3.67719 8.49999 3.67719C8.94567 3.67719 9.37883 3.81512 9.74078 4.06985L9.89164 4.18678L9.89525 4.18967L14.8541 8.43967H14.8533C15.0912 8.64158 15.2829 8.89287 15.4142 9.17591C15.546 9.46019 15.6142 9.76986 15.6141 10.0832V16.4582Z" fill="currentColor" style="fill:currentColor;fill-opacity:1;"/>
<path d="M22.188 18V8.928H24.33L24.51 10.404C24.786 9.9 25.176 9.492 25.68 9.18C26.196 8.868 26.808 8.712 27.516 8.712C28.272 8.712 28.908 8.868 29.424 9.18C29.94 9.492 30.33 9.948 30.594 10.548C30.87 11.148 31.008 11.886 31.008 12.762V18H28.596V12.996C28.596 12.276 28.44 11.724 28.128 11.34C27.828 10.956 27.36 10.764 26.724 10.764C26.316 10.764 25.95 10.86 25.626 11.052C25.314 11.244 25.068 11.52 24.888 11.88C24.708 12.228 24.618 12.654 24.618 13.158V18H22.188ZM37.6534 18.216C36.7414 18.216 35.9314 18.024 35.2234 17.64C34.5274 17.244 33.9814 16.698 33.5854 16.002C33.2014 15.294 33.0094 14.478 33.0094 13.554C33.0094 12.606 33.2014 11.772 33.5854 11.052C33.9814 10.32 34.5274 9.75 35.2234 9.342C35.9194 8.922 36.7294 8.712 37.6534 8.712C38.5534 8.712 39.3394 8.91 40.0114 9.306C40.6834 9.702 41.2054 10.236 41.5774 10.908C41.9494 11.58 42.1354 12.342 42.1354 13.194C42.1354 13.314 42.1354 13.452 42.1354 13.608C42.1354 13.752 42.1234 13.902 42.0994 14.058H34.7374V12.582H39.6874C39.6514 11.994 39.4414 11.532 39.0574 11.196C38.6854 10.86 38.2174 10.692 37.6534 10.692C37.2454 10.692 36.8674 10.788 36.5194 10.98C36.1714 11.16 35.8954 11.442 35.6914 11.826C35.4994 12.21 35.4034 12.696 35.4034 13.284V13.806C35.4034 14.298 35.4934 14.73 35.6734 15.102C35.8654 15.462 36.1294 15.744 36.4654 15.948C36.8014 16.14 37.1914 16.236 37.6354 16.236C38.0794 16.236 38.4454 16.14 38.7334 15.948C39.0334 15.756 39.2554 15.51 39.3994 15.21H41.8834C41.7154 15.774 41.4334 16.284 41.0374 16.74C40.6414 17.196 40.1554 17.556 39.5794 17.82C39.0034 18.084 38.3614 18.216 37.6534 18.216ZM45.5559 18L42.8919 8.928H45.2859L47.0499 16.29L46.5999 16.272L48.6159 8.928H51.3159L53.3319 16.272L52.8639 16.29L54.6459 8.928H57.0399L54.3759 18H51.8559L49.7139 10.44H50.2179L48.0759 18H45.5559ZM58.5396 18V5.04H60.9696V10.278C61.2696 9.798 61.6656 9.42 62.1576 9.144C62.6616 8.856 63.2436 8.712 63.9036 8.712C64.6596 8.712 65.2956 8.874 65.8116 9.198C66.3276 9.51 66.7176 9.966 66.9816 10.566C67.2456 11.166 67.3776 11.91 67.3776 12.798V18H64.9656V13.014C64.9656 12.294 64.8156 11.742 64.5156 11.358C64.2156 10.962 63.7416 10.764 63.0936 10.764C62.6976 10.764 62.3376 10.86 62.0136 11.052C61.6896 11.244 61.4316 11.526 61.2396 11.898C61.0596 12.258 60.9696 12.69 60.9696 13.194V18H58.5396ZM73.9505 18.216C73.0865 18.216 72.3065 18.018 71.6105 17.622C70.9265 17.214 70.3805 16.656 69.9725 15.948C69.5765 15.228 69.3785 14.406 69.3785 13.482C69.3785 12.534 69.5765 11.706 69.9725 10.998C70.3805 10.278 70.9325 9.72 71.6285 9.324C72.3245 8.916 73.1045 8.712 73.9685 8.712C74.8445 8.712 75.6245 8.916 76.3085 9.324C77.0045 9.72 77.5505 10.278 77.9465 10.998C78.3545 11.706 78.5585 12.528 78.5585 13.464C78.5585 14.4 78.3545 15.228 77.9465 15.948C77.5505 16.656 77.0045 17.214 76.3085 17.622C75.6125 18.018 74.8265 18.216 73.9505 18.216ZM73.9505 16.11C74.3585 16.11 74.7185 16.014 75.0305 15.822C75.3545 15.63 75.6065 15.336 75.7865 14.94C75.9785 14.544 76.0745 14.052 76.0745 13.464C76.0745 12.876 75.9785 12.39 75.7865 12.006C75.6065 11.61 75.3545 11.316 75.0305 11.124C74.7185 10.92 74.3645 10.818 73.9685 10.818C73.5845 10.818 73.2305 10.92 72.9065 11.124C72.5825 11.316 72.3245 11.61 72.1325 12.006C71.9525 12.39 71.8625 12.876 71.8625 13.464C71.8625 14.052 71.9525 14.544 72.1325 14.94C72.3245 15.336 72.5765 15.63 72.8885 15.822C73.2125 16.014 73.5665 16.11 73.9505 16.11ZM80.6528 18V8.928H82.7948L82.9928 10.134C83.2808 9.702 83.6588 9.36 84.1268 9.108C84.6068 8.844 85.1528 8.712 85.7648 8.712C86.2208 8.712 86.6288 8.772 86.9888 8.892C87.3488 9.012 87.6668 9.186 87.9428 9.414C88.2308 9.642 88.4648 9.93 88.6448 10.278C88.9808 9.786 89.4188 9.402 89.9588 9.126C90.4988 8.85 91.0868 8.712 91.7228 8.712C92.5148 8.712 93.1748 8.874 93.7028 9.198C94.2308 9.51 94.6268 9.966 94.8908 10.566C95.1668 11.166 95.3048 11.904 95.3048 12.78V18H92.8928V12.996C92.8928 12.276 92.7488 11.724 92.4608 11.34C92.1848 10.956 91.7528 10.764 91.1648 10.764C90.7808 10.764 90.4388 10.86 90.1388 11.052C89.8388 11.244 89.6048 11.52 89.4368 11.88C89.2808 12.24 89.2028 12.672 89.2028 13.176V18H86.7728V12.996C86.7728 12.276 86.6288 11.724 86.3408 11.34C86.0528 10.956 85.6088 10.764 85.0088 10.764C84.6368 10.764 84.3008 10.86 84.0008 11.052C83.7128 11.244 83.4848 11.52 83.3168 11.88C83.1608 12.24 83.0828 12.672 83.0828 13.176V18H80.6528ZM101.954 18.216C101.042 18.216 100.232 18.024 99.5242 17.64C98.8282 17.244 98.2822 16.698 97.8862 16.002C97.5022 15.294 97.3102 14.478 97.3102 13.554C97.3102 12.606 97.5022 11.772 97.8862 11.052C98.2822 10.32 98.8282 9.75 99.5242 9.342C100.22 8.922 101.03 8.712 101.954 8.712C102.854 8.712 103.64 8.91 104.312 9.306C104.984 9.702 105.506 10.236 105.878 10.908C106.25 11.58 106.436 12.342 106.436 13.194C106.436 13.314 106.436 13.452 106.436 13.608C106.436 13.752 106.424 13.902 106.4 14.058H99.0382V12.582H103.988C103.952 11.994 103.742 11.532 103.358 11.196C102.986 10.86 102.518 10.692 101.954 10.692C101.546 10.692 101.168 10.788 100.82 10.98C100.472 11.16 100.196 11.442 99.9922 11.826C99.8002 12.21 99.7042 12.696 99.7042 13.284V13.806C99.7042 14.298 99.7942 14.73 99.9742 15.102C100.166 15.462 100.43 15.744 100.766 15.948C101.102 16.14 101.492 16.236 101.936 16.236C102.38 16.236 102.746 16.14 103.034 15.948C103.334 15.756 103.556 15.51 103.7 15.21H106.184C106.016 15.774 105.734 16.284 105.338 16.74C104.942 17.196 104.456 17.556 103.88 17.82C103.304 18.084 102.662 18.216 101.954 18.216Z" fill="currentColor" style="fill:currentColor;fill-opacity:1;"/>
</g>
<defs>
<clipPath id="clip0_21_34">
<rect width="108" height="23" fill="white" style="fill:white;fill-opacity:1;"/>
</clipPath>
</defs>
</svg>
